# xmcd
#
# Track frame offsets: 
#        151
#        20684
#        40875
#        55592
#        75147
#        101830
#        121417
#        138806
#        155131
#        171216
#        193899
#        212652
#        232203
#
# Disc length: 3341 seconds
#
# Revision: 0
# Processed by: cddbd v1.5.2PL0 Copyright (c) Steve Scherf et al.
# Submitted via: ExactAudioCopy v0.95a5
#
DISCID=b00d0b0d
DTITLE=印第安音乐 - Ravishment
DYEAR=1996
DGENRE=Acid Jazz
TTITLE0=绿色的印地安
TTITLE1=中东的月亮
TTITLE2=玫瑰园
TTITLE3=生活节奏
TTITLE4=原始非洲
TTITLE5=遥远世外
TTITLE6=销魂
TTITLE7=印地安魔术笛
TTITLE8=禁色
TTITLE9=真音乐
TTITLE10=靓声女子组
TTITLE11=黑天不可思议
TTITLE12=神秘园
EXTD=
EXTT0=
EXTT1=
EXTT2=
EXTT3=
EXTT4=
EXTT5=
EXTT6=
EXTT7=
EXTT8=
EXTT9=
EXTT10=
EXTT11=
EXTT12=
PLAYORDER=
